<?xml version="1.0" encoding="utf-8"?>
<!-- Generator: Adobe Illustrator 16.0.2, SVG Export Plug-In . SVG Version: 6.00 Build 0)  -->
<!DOCTYPE svg PUBLIC "-//W3C//DTD SVG 1.1//EN" "http://www.w3.org/Graphics/SVG/1.1/DTD/svg11.dtd">
<svg version="1.1" id="Layer_1" xmlns="http://www.w3.org/2000/svg" xmlns:xlink="http://www.w3.org/1999/xlink" x="0px" y="0px"
	 width="255.12px" height="141.73px" viewBox="0 0 255.12 141.73" enable-background="new 0 0 255.12 141.73" xml:space="preserve">
<rect x="-11.338" y="-11.338" width="277.797" height="164.338"/>
<rect x="286.463" y="-11.502" width="277.797" height="164.338"/>
<g>
	<text transform="matrix(0.7305 0 0 1 173.7056 72.667)" fill="#FFFFFF" font-family="'Nakadai'" font-size="21.9265">2 Bits</text>
	<text transform="matrix(0.7459 0 0 1 146.5317 82.876)" fill="#FEFDFD" font-family="'Nakadai'" font-size="36.9577">4</text>
	<text transform="matrix(0.7547 0 0 1 173.3403 82.5059)" fill="#FFFFFF" font-family="'Opal'" font-size="10.838">Game Development</text>
	<g>
		<g>
			<text transform="matrix(0.9771 0 0 1 211.7974 58.9795)" fill="#FA0F0C" font-family="'Nakadai'" font-size="24.4243">.</text>
			<rect x="211.52" y="55.001" width="1.057" height="5.815"/>
			<rect x="215.926" y="54.824" width="1.059" height="5.816"/>
		</g>
		<rect x="212.93" y="52.534" transform="matrix(0.0074 1 -1 0.0074 267.3197 -158.4207)" width="1.057" height="5.815"/>
	</g>
</g>
<g>
	<text transform="matrix(1 0 0 1 383.5527 89.0879)" fill="#C1BFBF" font-family="'KarmaticArcade'" font-size="8">Game Designer</text>
	<text transform="matrix(0.7241 0 0 1 343.3828 78.3516)" fill="#FFFFFF" font-family="'Belfast'" font-size="38.8903">  Cedrik Rocha</text>
	<text transform="matrix(0.6693 0 0 1 406.9971 58.3618)" fill="#FA0F0C" font-family="'Belfast'" font-size="46.8021">.</text>
</g>
<g>
	<g>
		<text transform="matrix(1.0732 0 0 1 26.1494 59.3311)" fill="#FDFDFD" font-family="'CaviarDreams'" font-size="7.1885">cedrik.rocha@42bits.com.br</text>
		<text transform="matrix(1.1395 0 0 1 26.1494 73.7246)" fill="#FFFFFF" font-family="'CaviarDreams'" font-size="7.1885">42bits.com.br</text>
		<text transform="matrix(1.1395 0 0 1 26.1494 87.9512)" fill="#FFFFFF" font-family="'CaviarDreams'" font-size="7.1885">linkedin.com/in/cedrikrocha</text>
		<text transform="matrix(1.1395 0 0 1 25.647 101.25)" fill="#FFFFFF" font-family="'CaviarDreams'" font-size="7.1885">@42bits </text>
	</g>
	<g>
		<g>
			<g>
				<g>
					<path fill="#FA0F0C" d="M17.427,57.156L17.427,57.156c0.053,0,0.104-0.014,0.145-0.039l0.011-0.006
						c0.001-0.002,0.005-0.002,0.007-0.006l0.13-0.1l3.088-2.375c-0.007-0.008-0.018-0.014-0.029-0.014h-6.722
						c-0.009,0-0.017,0.002-0.023,0.008l3.232,2.482C17.308,57.139,17.366,57.156,17.427,57.156z M14.022,54.955v3.521l2.315-1.744
						L14.022,54.955z M18.503,56.744l2.313,1.732v-3.51L18.503,56.744z M17.769,57.309c-0.093,0.072-0.214,0.109-0.341,0.109
						s-0.247-0.037-0.339-0.107l-0.53-0.408l-2.537,1.91v0.006c0,0.018,0.017,0.033,0.037,0.033h6.721
						c0.019,0,0.036-0.014,0.036-0.035v-0.004l-2.534-1.898L17.769,57.309z"/>
				</g>
			</g>
			<g>
				<g>
					<path fill="#FA0F0C" d="M17.738,67.696c-1.759,0-3.189,1.334-3.189,2.973s1.431,2.973,3.189,2.973
						c1.758,0,3.189-1.334,3.189-2.973S19.497,67.696,17.738,67.696z M16.797,68.634c-0.194,0.254-0.381,0.572-0.511,0.961h-0.627
						C15.912,69.169,16.313,68.829,16.797,68.634z M15.458,71.298c-0.063-0.199-0.098-0.41-0.098-0.629s0.036-0.43,0.098-0.629
						h0.716c-0.035,0.197-0.055,0.404-0.055,0.629s0.021,0.432,0.055,0.629H15.458z M15.658,71.743h0.627
						c0.13,0.389,0.317,0.709,0.511,0.961C16.313,72.509,15.912,72.169,15.658,71.743z M17.5,72.786
						c-0.23-0.217-0.52-0.561-0.708-1.043H17.5V72.786z M17.5,71.298h-0.838c-0.041-0.193-0.065-0.402-0.065-0.629
						s0.024-0.436,0.063-0.629H17.5V71.298L17.5,71.298z M17.5,69.595H16.79c0.187-0.488,0.478-0.832,0.709-1.047V69.595z
						 M19.817,69.595h-0.627c-0.129-0.389-0.317-0.707-0.511-0.961C19.162,68.829,19.563,69.169,19.817,69.595z M17.976,68.552
						c0.23,0.219,0.52,0.561,0.707,1.043h-0.707V68.552z M17.976,70.04h0.838c0.04,0.193,0.065,0.402,0.065,0.629
						s-0.023,0.436-0.063,0.629h-0.84V70.04z M17.976,71.743h0.709c-0.187,0.488-0.478,0.832-0.709,1.047V71.743z M18.679,72.704
						c0.194-0.252,0.382-0.572,0.511-0.961h0.627C19.563,72.169,19.162,72.509,18.679,72.704z M20.115,70.669
						c0,0.219-0.035,0.43-0.098,0.629h-0.716c0.035-0.197,0.056-0.404,0.056-0.629s-0.021-0.432-0.056-0.629h0.716
						C20.081,70.239,20.115,70.45,20.115,70.669z"/>
				</g>
			</g>
			<g>
				<g>
					<g>
						<path fill="#FA0F0C" d="M15.844,81.87c-0.399,0-0.724,0.303-0.724,0.674c0,0.373,0.324,0.674,0.724,0.674
							c0.399,0,0.724-0.301,0.724-0.674C16.567,82.173,16.242,81.87,15.844,81.87z"/>
						<rect x="15.218" y="83.729" fill="#FA0F0C" width="1.249" height="3.742"/>
						<path fill="#FA0F0C" d="M19.645,83.638c-0.607,0-1.014,0.309-1.181,0.604h-0.017v-0.512H17.25l0,0v3.742h1.247V85.62
							c0-0.488,0.1-0.959,0.749-0.959c0.641,0,0.649,0.557,0.649,0.99v1.82h1.247v-2.053C21.141,84.413,20.908,83.638,19.645,83.638
							z"/>
					</g>
				</g>
			</g>
		</g>
		<g>
			<g>
				<g>
					<path fill="#FA0F0C" d="M18.257,95.805c-1.804,0-3.271,1.469-3.271,3.271s1.467,3.271,3.271,3.271s3.271-1.469,3.271-3.271
						S20.062,95.805,18.257,95.805z M19.717,98.327c0.001,0.033,0.002,0.064,0.002,0.098c0,0.995-0.757,2.143-2.143,2.143
						c-0.425,0-0.821-0.125-1.154-0.338c0.059,0.007,0.119,0.011,0.18,0.011c0.353,0,0.677-0.12,0.935-0.323
						c-0.33-0.006-0.608-0.223-0.703-0.522c0.045,0.009,0.093,0.014,0.141,0.014c0.069,0,0.135-0.009,0.198-0.026
						c-0.344-0.07-0.604-0.374-0.604-0.738c0-0.003,0-0.007,0-0.01c0.102,0.056,0.218,0.09,0.341,0.094
						c-0.202-0.134-0.334-0.365-0.334-0.627c0-0.137,0.037-0.268,0.102-0.378c0.372,0.456,0.926,0.756,1.552,0.787
						c-0.013-0.056-0.019-0.112-0.019-0.172c0-0.416,0.336-0.753,0.752-0.753c0.217,0,0.413,0.091,0.549,0.237
						c0.172-0.033,0.333-0.096,0.479-0.183c-0.056,0.177-0.175,0.324-0.332,0.418c0.153-0.02,0.298-0.06,0.433-0.119
						C19.991,98.089,19.864,98.221,19.717,98.327z"/>
				</g>
			</g>
			<g>
			</g>
			<g>
			</g>
			<g>
			</g>
			<g>
			</g>
			<g>
			</g>
			<g>
			</g>
			<g>
			</g>
			<g>
			</g>
			<g>
			</g>
			<g>
			</g>
			<g>
			</g>
			<g>
			</g>
			<g>
			</g>
			<g>
			</g>
			<g>
			</g>
		</g>
	</g>
</g>
</svg>
