<?xml version="1.0" encoding="utf-8"?>
<!-- Generator: Adobe Illustrator 16.0.2, SVG Export Plug-In . SVG Version: 6.00 Build 0)  -->
<!DOCTYPE svg PUBLIC "-//W3C//DTD SVG 1.1//EN" "http://www.w3.org/Graphics/SVG/1.1/DTD/svg11.dtd">
<svg version="1.1" id="Layer_1" xmlns="http://www.w3.org/2000/svg" xmlns:xlink="http://www.w3.org/1999/xlink" x="0px" y="0px"
	 width="255.12px" height="141.73px" viewBox="0 0 255.12 141.73" enable-background="new 0 0 255.12 141.73" xml:space="preserve">
<rect x="-309.138" y="-10.274" width="277.797" height="164.339"/>
<rect x="-11.336" y="-10.438" width="277.797" height="164.339"/>
<g>
	<text transform="matrix(0.7305 0 0 1 -122.8882 71.667)" fill="#FFFFFF" font-family="'Nakadai'" font-size="21.9265">2 Bits</text>
	<text transform="matrix(0.7459 0 0 1 -150.062 81.876)" fill="#FEFDFD" font-family="'Nakadai'" font-size="36.9577">4</text>
	<text transform="matrix(0.7547 0 0 1 -123.2534 81.5059)" fill="#FFFFFF" font-family="'Opal'" font-size="10.838">Game Development</text>
	<g>
		<g>
			<text transform="matrix(0.9771 0 0 1 -84.7964 57.9795)" fill="#FA0F0C" font-family="'Nakadai'" font-size="24.4243">.</text>
			<rect x="-85.074" y="54.001" width="1.057" height="5.815"/>
			<rect x="-80.668" y="53.824" width="1.059" height="5.816"/>
		</g>
		<rect x="-83.664" y="51.534" transform="matrix(0.0074 1 -1 0.0074 -28.0812 137.1724)" width="1.057" height="5.815"/>
	</g>
</g>
<text transform="matrix(1.0732 0 0 1 -274.4443 58.3311)" fill="#FDFDFD" font-family="'CaviarDreams'" font-size="7.1885">ramon.nogueira@42bits.com.br</text>
<text transform="matrix(1.1395 0 0 1 -274.4443 72.7246)" fill="#FFFFFF" font-family="'CaviarDreams'" font-size="7.1885">42bits.com.br</text>
<text transform="matrix(1.1395 0 0 1 -274.4443 86.9512)" fill="#FFFFFF" font-family="'CaviarDreams'" font-size="7.1885">@CramonNS</text>
<g>
	<g>
		<path fill="#FA0F0C" d="M-283.167,56.156L-283.167,56.156c0.053,0,0.104-0.014,0.145-0.039l0.011-0.006
			c0.001-0.002,0.005-0.002,0.007-0.006l0.13-0.1l3.088-2.375c-0.007-0.008-0.018-0.014-0.029-0.014h-6.722
			c-0.009,0-0.017,0.002-0.023,0.008l3.232,2.482C-283.286,56.139-283.228,56.156-283.167,56.156z M-286.572,53.955v3.521
			l2.315-1.744L-286.572,53.955z M-282.09,55.744l2.313,1.732v-3.51L-282.09,55.744z M-282.825,56.309
			c-0.093,0.072-0.214,0.109-0.341,0.109s-0.247-0.037-0.339-0.107l-0.53-0.408l-2.537,1.91v0.006c0,0.018,0.017,0.033,0.037,0.033
			h6.721c0.019,0,0.036-0.014,0.036-0.035v-0.004l-2.534-1.898L-282.825,56.309z"/>
	</g>
</g>
<g>
	<g>
		<path fill="#FA0F0C" d="M-282.856,66.696c-1.759,0-3.189,1.334-3.189,2.973s1.431,2.973,3.189,2.973
			c1.758,0,3.189-1.334,3.189-2.973S-281.097,66.696-282.856,66.696z M-283.797,67.634c-0.194,0.254-0.381,0.572-0.511,0.961h-0.627
			C-284.682,68.169-284.28,67.829-283.797,67.634z M-285.135,70.298c-0.063-0.199-0.098-0.41-0.098-0.629s0.036-0.43,0.098-0.629
			h0.716c-0.035,0.197-0.055,0.404-0.055,0.629s0.021,0.432,0.055,0.629H-285.135z M-284.936,70.743h0.627
			c0.13,0.389,0.317,0.709,0.511,0.961C-284.28,71.509-284.682,71.169-284.936,70.743z M-283.094,71.786
			c-0.23-0.217-0.52-0.561-0.708-1.043h0.708V71.786z M-283.094,70.298h-0.838c-0.041-0.193-0.065-0.402-0.065-0.629
			s0.024-0.436,0.063-0.629h0.841V70.298L-283.094,70.298z M-283.094,68.595h-0.709c0.187-0.488,0.478-0.832,0.709-1.047V68.595z
			 M-280.777,68.595h-0.627c-0.129-0.389-0.317-0.707-0.511-0.961C-281.432,67.829-281.031,68.169-280.777,68.595z M-282.618,67.552
			c0.23,0.219,0.52,0.561,0.707,1.043h-0.707V67.552z M-282.618,69.04h0.838c0.04,0.193,0.065,0.402,0.065,0.629
			s-0.023,0.436-0.063,0.629h-0.84V69.04z M-282.618,70.743h0.709c-0.187,0.488-0.478,0.832-0.709,1.047V70.743z M-281.915,71.704
			c0.194-0.252,0.382-0.572,0.511-0.961h0.627C-281.031,71.169-281.432,71.509-281.915,71.704z M-280.479,69.669
			c0,0.219-0.035,0.43-0.098,0.629h-0.716c0.035-0.197,0.056-0.404,0.056-0.629s-0.021-0.432-0.056-0.629h0.716
			C-280.513,69.239-280.479,69.45-280.479,69.669z"/>
	</g>
</g>
<text transform="matrix(1 0 0 1 84.792 91.9209)" fill="#C1BFBF" font-family="'KarmaticArcade'" font-size="8">game programmer</text>
<text transform="matrix(0.7241 0 0 1 37.7891 76.3516)" fill="#FFFFFF" font-family="'Belfast'" font-size="38.8903">  Ramon Nogueira</text>
<text transform="matrix(0.6693 0 0 1 183.1016 56.6123)" fill="#FA0F0C" font-family="'Belfast'" font-size="46.8021">.</text>
<g>
	<g>
		<g>
			<path fill="#FA0F0C" d="M-282.834,81.506c-1.804,0-3.271,1.469-3.271,3.271s1.467,3.271,3.271,3.271s3.271-1.469,3.271-3.271
				S-281.03,81.506-282.834,81.506z M-281.375,84.028c0.001,0.033,0.002,0.064,0.002,0.098c0,0.995-0.757,2.143-2.143,2.143
				c-0.425,0-0.821-0.125-1.154-0.338c0.059,0.007,0.119,0.011,0.18,0.011c0.353,0,0.677-0.12,0.935-0.323
				c-0.33-0.006-0.608-0.223-0.703-0.522c0.045,0.009,0.093,0.014,0.141,0.014c0.069,0,0.135-0.009,0.198-0.026
				c-0.344-0.07-0.604-0.374-0.604-0.738c0-0.003,0-0.007,0-0.01c0.102,0.056,0.218,0.09,0.341,0.094
				c-0.202-0.134-0.334-0.365-0.334-0.627c0-0.137,0.037-0.268,0.102-0.378c0.372,0.456,0.926,0.756,1.552,0.787
				c-0.013-0.056-0.019-0.112-0.019-0.172c0-0.416,0.336-0.753,0.752-0.753c0.217,0,0.413,0.091,0.549,0.237
				c0.172-0.033,0.333-0.096,0.479-0.183c-0.056,0.177-0.175,0.324-0.332,0.418c0.153-0.02,0.298-0.06,0.433-0.119
				C-281.1,83.79-281.228,83.922-281.375,84.028z"/>
		</g>
	</g>
	<g>
	</g>
	<g>
	</g>
	<g>
	</g>
	<g>
	</g>
	<g>
	</g>
	<g>
	</g>
	<g>
	</g>
	<g>
	</g>
	<g>
	</g>
	<g>
	</g>
	<g>
	</g>
	<g>
	</g>
	<g>
	</g>
	<g>
	</g>
	<g>
	</g>
</g>
<text transform="matrix(1.1395 0 0 1 -273.7319 100.3965)" fill="#FFFFFF" font-family="'CaviarDreams'" font-size="7.1885">@42bits</text>
<g>
	<g>
		<g>
			<path fill="#FA0F0C" d="M-282.122,94.951c-1.804,0-3.271,1.469-3.271,3.271s1.467,3.271,3.271,3.271s3.271-1.469,3.271-3.271
				S-280.317,94.951-282.122,94.951z M-280.662,97.474c0.001,0.033,0.002,0.064,0.002,0.098c0,0.995-0.757,2.143-2.143,2.143
				c-0.425,0-0.821-0.125-1.154-0.338c0.059,0.007,0.119,0.011,0.18,0.011c0.353,0,0.677-0.12,0.935-0.323
				c-0.33-0.006-0.608-0.223-0.703-0.522c0.045,0.009,0.093,0.014,0.141,0.014c0.069,0,0.135-0.009,0.198-0.026
				c-0.344-0.07-0.604-0.374-0.604-0.738c0-0.003,0-0.007,0-0.01c0.102,0.056,0.218,0.09,0.341,0.094
				c-0.202-0.134-0.334-0.365-0.334-0.627c0-0.137,0.037-0.268,0.102-0.378c0.372,0.456,0.926,0.756,1.552,0.787
				c-0.013-0.056-0.019-0.112-0.019-0.172c0-0.416,0.336-0.753,0.752-0.753c0.217,0,0.413,0.091,0.549,0.237
				c0.172-0.033,0.333-0.096,0.479-0.183c-0.056,0.177-0.175,0.324-0.332,0.418c0.153-0.02,0.298-0.06,0.433-0.119
				C-280.388,97.235-280.515,97.367-280.662,97.474z"/>
		</g>
	</g>
	<g>
	</g>
	<g>
	</g>
	<g>
	</g>
	<g>
	</g>
	<g>
	</g>
	<g>
	</g>
	<g>
	</g>
	<g>
	</g>
	<g>
	</g>
	<g>
	</g>
	<g>
	</g>
	<g>
	</g>
	<g>
	</g>
	<g>
	</g>
	<g>
	</g>
</g>
</svg>
